# xmcd
#
# Track frame offsets:
# 150
# 16335
# 36037
# 53882
# 73549
# 82419
# 103485
# 121833
# 137826
# 155257
#
# Disc length: 2320 seconds
#
# Revision: 0
# Processed by: cddbd v1.4PL0 Copyright (c) Steve Scherf et al.
# Submitted via: Axialis_AX_CDPlayer 2.6
#
DISCID=88090e0a
DTITLE=阿杜 - 天黑
DYEAR=1900
DGENRE=
TTITLE0=他一定很愛你
TTITLE1=天黑
TTITLE2=天天看到你
TTITLE3=一個人住
TTITLE4=ANDY
TTITLE5=撕夜
TTITLE6=無法阻檔
TTITLE7=你很好
TTITLE8=離別
TTITLE9=RIGHT HERE WAITING
EXTD=
EXTT0=
EXTT1=
EXTT2=
EXTT3=
EXTT4=
EXTT5=
EXTT6=
EXTT7=
EXTT8=
EXTT9=
PLAYORDER=
